<?xml version="1.0" encoding="utf-8"?>
<!-- Generator: Adobe Illustrator 26.0.2, SVG Export Plug-In . SVG Version: 6.00 Build 0)  -->
<svg version="1.1" id="Calque_1" xmlns="http://www.w3.org/2000/svg" xmlns:xlink="http://www.w3.org/1999/xlink" x="0px" y="0px"
	 viewBox="0 0 401.5 83.8" style="enable-background:new 0 0 401.5 83.8;" xml:space="preserve">
<style type="text/css">
	.st0{fill:#FFFFFF;}
	.st1{fill:#1D1D1B;}
	.st2{fill:#D42E1A;}
</style>
<rect x="10.7" y="12.9" class="st0" width="373.9" height="63.8"/>
<rect x="17.5" y="20.5" class="st1" width="51.7" height="46.4"/>
<rect x="17.5" y="20.5" class="st2" width="52.4" height="46.4"/>
<polygon class="st0" points="20.6,30.4 20.6,30.4 26.6,25.1 37.3,25.1 42.6,30.4 42.6,38 32.7,38 32.7,32.7 31.2,32.7 31.2,40.3 
	37.3,41.8 42.6,46.3 42.6,59.3 37.3,63.8 25.9,63.8 20.6,59.3 20.6,52.4 31.2,52.4 31.2,57.7 32.7,57.7 32.7,48.6 27.4,48.6 
	20.6,43.3 "/>
<polygon class="st0" points="44.9,30.4 44.9,30.4 50.2,24.3 60.8,24.3 66.9,30.4 66.9,59.3 61.6,63.8 50.2,63.8 44.9,59.3 "/>
<rect x="54.8" y="31.9" class="st2" width="2.3" height="25.1"/>
<path class="st1" d="M89.7,60h4.6V32.7h-4.6V60z M89.7,28.9h4.6v-5.3h-4.6V28.9z"/>
<path class="st1" d="M103.4,32.7h3.8l0.8,2.3c1.5-1.5,3.8-3,9.9-3c9.1,0,9.9,4.6,9.9,11.4V60h-4.6v-16c0-4.6-0.8-7.6-6.8-7.6
	c-6.8,0-8.4,3.8-8.4,8.4V60h-4.6V32.7z"/>
<path class="st1" d="M133.8,32.7h5.3v-2.3c0-5.3,1.5-9.1,9.1-9.1h3v4.6H149c-3.8,0-4.6,2.3-4.6,4.6v2.3h6.8v4.6h-6.8v23.6h-5.3V37.2
	h-5.3V32.7z"/>
<path class="st1" d="M155.1,46.3c0-9.1,3.8-14.4,13.7-14.4s13.7,5.3,13.7,14.4s-3.8,14.4-13.7,14.4S155.1,55.5,155.1,46.3
	 M177.1,46.3c0-6.1-2.3-9.9-9.1-9.9c-6.8,0-9.1,3.8-9.1,9.9s2.3,9.9,9.1,9.9C174.8,56.2,177.1,53.2,177.1,46.3"/>
<path class="st1" d="M196.1,49.4c-0.8,0.8-0.8,0.8-0.8,1.5c0,1.5,1.5,1.5,5.3,1.5c10.6,0,13.7,1.5,13.7,7.6s-3.8,8.4-13.7,8.4
	c-9.1,0-12.9-1.5-12.9-6.8c0-3,1.5-6.1,5.3-6.8c-0.8-0.8-1.5-1.5-1.5-3c0-1.5,0.8-3,1.5-3.8c-2.3-1.5-3-3.8-3-6.8
	c0-6.1,3.8-9.1,12.2-9.1c0.8,0,1.5,0,1.5,0l10.6-1.5v3.8h-4.6c2.3,1.5,3.8,3,3.8,6.8c0,6.1-3.8,9.1-12.2,9.1
	C198.4,50.1,196.9,50.1,196.1,49.4 M209,60.8c0-3-2.3-3.8-9.1-3.8c-7.6,0-8.4,1.5-8.4,3.8c0,3,2.3,3.8,8.4,3.8
	C207.5,65.3,209,63.8,209,60.8 M207.5,41c0-3.8-2.3-4.6-6.8-4.6c-5.3,0-6.8,1.5-6.8,4.6c0,3.8,2.3,5.3,6.8,5.3S207.5,44.8,207.5,41"
	/>
<path class="st1" d="M221.2,32.7h3.8l0.8,3c0.8-2.3,4.6-3.8,9.1-3.8v4.6c-6.8,0-9.1,3.8-9.1,8.4v14.4h-4.6V32.7z"/>
<path class="st1" d="M237.9,52.4c0-7.6,4.6-9.9,18.2-9.9h1.5c0-3.8-0.8-6.1-6.8-6.1c-3.8,0-6.1,1.5-8.4,2.3l-2.3-3.8
	c1.5-1.5,6.1-3,11.4-3c9.1,0,11.4,3,11.4,11.4v9.9c0,3,0,3,3,3v4.6c0,0-0.8,0-2.3,0c-3,0-3.8-0.8-4.6-3c-1.5,2.3-4.6,3.8-10.6,3.8
	C240.2,60.8,237.9,57,237.9,52.4 M257.7,47.9v-1.5h-1.5c-11.4,0-13.7,1.5-13.7,5.3c0,3,1.5,4.6,6.1,4.6
	C255.4,56.2,257.7,53.9,257.7,47.9"/>
<path class="st1" d="M272.1,32.7h3.8l0.8,3c1.5-2.3,4.6-3.8,10.6-3.8c9.1,0,12.2,6.1,12.2,14.4s-2.3,14.4-12.2,14.4
	c-6.1,0-8.4-0.8-9.9-3v11.4h-4.6V32.7H272.1z M294.1,46.3c0-6.1-1.5-9.9-8.4-9.9c-6.8,0-9.1,2.3-9.1,9.9s2.3,9.9,9.1,9.9
	C292.6,56.2,294.1,52.4,294.1,46.3"/>
<path class="st1" d="M306.3,21.3h4.6v13.7c0.8-1.5,3.8-3,9.9-3c9.1,0,9.9,4.6,9.9,11.4V60H326v-16c0-4.6-0.8-7.6-6.8-7.6
	c-6.8,0-8.4,3.8-8.4,8.4V60h-4.6V21.3z"/>
<path class="st1" d="M339,23.5h5.3v6.1h-4.6v-6.1H339z M339,32.7h5.3v28.1h-4.6V32.7H339z"/>
<path class="st1" d="M351.1,46.3c0-8.4,2.3-14.4,13.7-14.4s12.2,7.6,11.4,16.7h-20.5c0,5.3,2.3,8.4,9.1,8.4c4.6,0,6.8-1.5,9.1-3
	l2.3,3c-3,2.3-6.1,3.8-11.4,3.8C353.4,60.8,351.1,54.7,351.1,46.3 M356.4,44.1h16c0-4.6-0.8-7.6-7.6-7.6
	C358.7,36.5,356.4,39.5,356.4,44.1"/>
</svg>
