<svg class="icon-dossier" width="23px" height="23px" viewBox="0 0 23 23" version="1.1" xmlns="http://www.w3.org/2000/svg">
    <circle cx="11.5" cy="11.5" r="11.5" class="icon-label-disc"></circle>
   <path class="icon-label-figure-fill" stroke="#FFFFFF" stroke-width="0.5" fill="#FFFFFF" d="M4.95903911,8.48441545 L11.4996481,11.5077892 L18.0409609,8.48441545 L11.4996481,5.46104169 L4.95903911,8.48441545 Z M11.4996481,11.9688748 C11.4679753,11.9688748 11.4364784,11.9620322 11.4072691,11.9485224 L4.34370701,8.68337703 C4.26593269,8.647585 4.21613601,8.5696847 4.21613601,8.48424 C4.21613601,8.39897075 4.26575673,8.32107046 4.34370701,8.28527843 L11.4072691,5.02013302 C11.4656878,4.99328899 11.5337843,4.99328899 11.592203,5.02013302 L18.656293,8.28527843 C18.7340673,8.32107046 18.783688,8.39897075 18.783688,8.48424 C18.783688,8.5696847 18.7342433,8.647585 18.656293,8.68337703 L11.592203,11.948347 C11.5628177,11.9620322 11.5313209,11.9688748 11.4996481,11.9688748 L11.4996481,11.9688748 Z M11.4996481,14.9650536 C11.4674474,14.9650536 11.4354227,14.9578601 11.4055095,14.943824 L4.12586853,11.5062102 C4.0160695,11.4542766 3.96926414,11.3235655 4.02117234,11.214084 C4.07325649,11.1046025 4.20399477,11.0575816 4.31414573,11.1095152 L11.4996481,14.5030908 L18.6858543,11.1095152 C18.7960052,11.0577571 18.9269195,11.104778 18.9788277,11.214084 C19.0307359,11.3235655 18.9839305,11.4542766 18.8741315,11.5062102 L11.5937867,14.943824 C11.5638735,14.9578601 11.5318488,14.9650536 11.4996481,14.9650536 L11.4996481,14.9650536 Z M11.4996481,17.9 C11.4674474,17.9 11.4352467,17.892982 11.4055095,17.8789459 L4.12586853,14.4406302 C4.0160695,14.3886967 3.96926414,14.2579856 4.02117234,14.1485041 C4.07325649,14.0390226 4.20452265,13.9923526 4.31414573,14.0441107 L11.4996481,17.4380372 L18.6858543,14.0441107 C18.7960052,13.992528 18.9269195,14.039198 18.9788277,14.1485041 C19.0307359,14.2579856 18.9839305,14.3886967 18.8741315,14.4406302 L11.5937867,17.8789459 C11.5640494,17.892982 11.5318488,17.9 11.4996481,17.9 L11.4996481,17.9 Z"></path>
</svg>